<svg xmlns="http://www.w3.org/2000/svg" viewBox="0 0 24 24" id="goodreads">
  <path fill="#EFEDDD" d="M24 2a2 2 0 0 0-2-2H2a2 2 0 0 0-2 2v20a2 2 0 0 0 2 2h20a2 2 0 0 0 2-2V2z"></path>
  <path fill="#553B08" d="M17.673 3.423H16.12v2.159c-.042.016-.064-.026-.086-.064-.514-1.109-1.923-2.48-4.072-2.464-2.781.022-4.671 1.672-5.39 4.168-.23.797-.31 1.612-.294 2.443.092 4.174 2.416 6.311 6.022 6.171 1.549-.059 2.92-.911 3.696-2.422.026-.054.059-.102.091-.155.01.006.022.006.032.01.016.203.01 1.645.006 1.848-.01.793-.107 1.581-.385 2.33-.418 1.125-1.194 1.859-2.384 2.116-.953.209-1.907.204-2.85-.064-1.152-.327-1.955-1.018-2.202-2.239-.016-.086-.07-.07-.123-.07H6.744c.042.568.172 1.088.455 1.565 1.296 2.169 4.431 2.598 6.867 2.003 2.673-.659 3.606-2.941 3.61-5.695l.002-.001c.001.002-.005-1.82-.005-11.639zm-3.53 10.499c-1.194.831-2.828.755-3.793.305-1.987-.927-2.651-3.139-2.507-5.207.231-3.263 2.191-4.709 4.034-4.688 2.512-.01 3.847 1.704 4.19 4.194v.001c.272 1.999-.252 4.233-1.924 5.395z"></path>
</svg>
